<svg xmlns="http://www.w3.org/2000/svg" width="209" height="41" viewBox="0 0 209 41" fill="none"><path d="M40.758 0L0 0L0 40.758L40.758 40.758L40.758 0Z" fill="#E9204F"></path><path d="M23.0417 14.8358V32.5441H19.1481V30.3481C18.3483 31.2202 17.4528 31.9015 16.4616 32.3886C15.4698 32.8762 14.3094 33.1206 12.9804 33.1206C11.3917 33.1206 9.95899 32.7389 8.68182 31.9756C7.40465 31.2122 6.36389 30.1042 5.55897 28.6505C4.75404 27.1967 4.35187 25.5407 4.35187 23.6819C4.35187 21.8858 4.74379 20.2606 5.52764 18.8068C6.31148 17.3531 7.39668 16.2291 8.78265 15.435C10.1686 14.6404 11.6144 14.2439 13.12 14.2439C14.1482 14.2439 15.0614 14.4051 15.8612 14.7264C16.6604 15.0482 17.3434 15.435 17.9091 15.8868C18.4748 16.3385 18.8673 16.7356 19.0849 17.0779H19.147V14.8352L23.0417 14.8358ZM19.0233 23.6523C19.0233 22.0015 18.5272 20.6668 17.536 19.6494C16.5442 18.6319 15.3063 18.1233 13.8212 18.1233C12.8659 18.1233 11.9858 18.3648 11.1815 18.8473C10.3765 19.3298 9.74309 20.0259 9.28167 20.9345C8.81911 21.8431 8.58839 22.7904 8.58839 23.7771C8.58839 25.3243 9.09937 26.6185 10.1225 27.6621C11.1456 28.7057 12.3886 29.2275 13.8526 29.2275C15.3992 29.2275 16.6484 28.6881 17.5981 27.6074C18.5482 26.5268 19.0233 25.2092 19.0233 23.6523Z" fill="white"></path><path d="M26.9108 32.6817V18.2258H25.3602V14.3171H26.9108C27.04 12.8634 27.32 11.7328 27.7507 10.9252C28.3429 9.8053 29.1075 8.99232 30.0443 8.48623C30.9918 7.96937 31.9448 7.71094 32.9032 7.71094H34.1307V12.0396C33.28 12.0612 32.6986 12.1312 32.3863 12.2496C32.0848 12.3573 31.8425 12.5619 31.6595 12.8634C31.4764 13.1649 31.3633 13.6494 31.3203 14.3171H33.8884V18.2258H31.3203V32.6817H26.9108Z" fill="white"></path><path d="M48.2851 36.3689L61.652 4.25421H66.2913L79.7425 36.3689H73.1756L69.7652 28.0863H58.2624L54.8307 36.3689H48.2851ZM67.6253 22.4933L63.982 12.6425H63.897L60.2537 22.4933H67.6253Z" fill="white"></path><path d="M83.2176 36.3689V4.25421H89.1707V30.8187H98.9579V36.3689H83.2176Z" fill="white"></path><path d="M116.166 36.3702V9.82652H110.213V4.25549H128.091V9.82652H122.096V36.3696L116.166 36.3702Z" fill="white"></path><path d="M130.824 36.3689V4.25421H148.09V9.82524H136.777V17.6633H147.624V23.2135H136.777V30.8187H148.09V36.3689H130.824Z" fill="white"></path><path d="M101.85 36.3945V10.5574H107.311V36.3945H101.85Z" fill="white"></path><path d="M107.338 4.25552H101.85V9.82655H107.338V4.25552Z" fill="#E9204F"></path><path d="M182.562 36.3945V10.5574H188.024V36.3945H182.562Z" fill="white"></path><path d="M188.05 4.25549H182.562V9.82652H188.05V4.25549Z" fill="#E9204F"></path><path d="M160.854 36.4223V4.25421H177.235V9.83481H166.817V17.6859H176.768V23.2452H166.817V36.4223H160.854Z" fill="white"></path><path d="M197.054 36.4223V9.83481H191.091V4.25421H209V9.83481H202.995V36.4223H197.054Z" fill="white"></path></svg>