<svg width="21" height="34" viewBox="0 0 21 34" fill="none" xmlns="http://www.w3.org/2000/svg">
<path fill-rule="evenodd" clip-rule="evenodd" d="M20.5324 3.18222C20.4307 2.98395 17.5792 0.135251 17.4079 0.0607145C17.2021 -0.0288198 16.8793 -0.0181127 16.6818 0.084793C16.5859 0.134755 13.035 3.65442 8.37574 8.3177C0.420563 16.2799 0.236297 16.4682 0.193156 16.6795C0.14211 16.9295 0.179424 17.141 0.311963 17.3527C0.363461 17.435 4.05036 21.1439 8.50507 25.5946C16.4907 33.5733 16.6078 33.6878 16.8339 33.7399C17.0101 33.7804 17.1147 33.7801 17.2856 33.7385C17.4945 33.6876 17.597 33.596 18.9685 32.2338C19.7717 31.4361 20.468 30.7079 20.5157 30.6157C20.6205 30.4133 20.6278 30.0965 20.533 29.8671C20.4837 29.7478 18.6071 27.8421 14.0507 23.2844L7.63774 16.8696L14.0525 10.455C17.5806 6.92707 20.4976 3.97646 20.5348 3.89817C20.6222 3.71418 20.621 3.35496 20.5324 3.18222Z" fill="black"/>
</svg>
