<svg width="21" height="34" viewBox="0 0 21 34" fill="none" xmlns="http://www.w3.org/2000/svg">
<path fill-rule="evenodd" clip-rule="evenodd" d="M0.467616 30.8178C0.569347 31.0161 3.4208 33.8647 3.59214 33.9393C3.79791 34.0288 4.12068 34.0181 4.31818 33.9152C4.41412 33.8652 7.96505 30.3456 12.6243 25.6823C20.5794 17.7201 20.7637 17.5318 20.8068 17.3205C20.8579 17.0705 20.8206 16.859 20.688 16.6473C20.6365 16.565 16.9496 12.8561 12.4949 8.40536C4.50926 0.426689 4.39222 0.312218 4.16612 0.260136C3.98985 0.219566 3.88532 0.219883 3.71439 0.261536C3.5055 0.312401 3.40305 0.404011 2.03153 1.76618C1.2283 2.56395 0.532034 3.2921 0.48433 3.38426C0.379527 3.58668 0.372164 3.90353 0.466983 4.13287C0.516313 4.25222 2.39287 6.15788 6.94932 10.7156L13.3623 17.1304L6.94751 23.545C3.4194 27.0729 0.502355 30.0235 0.465177 30.1018C0.377766 30.2858 0.37903 30.645 0.467616 30.8178Z" fill="black"/>
</svg>
