<svg width="1440" height="706" viewBox="0 0 1440 706" fill="none" xmlns="http://www.w3.org/2000/svg">
<g opacity="0.05">
<path d="M1022.84 618.461C1025.09 617.402 1045.16 610.871 1045.88 611.842C1046.33 612.46 1042.37 632.846 1041.74 633.464C1041.56 633.728 1027.34 622.609 1022.84 618.461ZM1134.26 172.181C1134.26 172.093 1129.85 163.885 1127.96 159.649C1127.87 159.385 1127.69 158.679 1127.6 158.237C1127.51 157.884 1127.33 157.62 1127.06 157.443C1126.79 157.267 1126.52 157.355 1126.34 157.531L1114.55 168.386C1114.37 168.563 1114.28 168.827 1114.19 169.092C1114.19 169.357 1114.19 169.71 1114.37 169.975C1114.46 170.063 1115.63 172.181 1116.26 173.152C1118.42 176.417 1122.11 183.83 1122.11 183.918C1122.29 184.183 1122.47 184.359 1122.74 184.448C1123.01 184.448 1123.19 184.359 1123.37 184.183C1123.37 184.183 1124.99 181.977 1125.8 181.006C1127.15 179.594 1128.5 178.182 1129.94 176.858C1131.02 175.799 1131.38 175.623 1131.83 175.446C1132.28 175.181 1132.82 175.005 1134.08 173.769C1134.44 173.328 1134.53 172.622 1134.26 172.181ZM60.2946 649.79C60.2946 649.172 59.8446 648.731 59.2146 648.731C59.1246 648.731 58.9446 648.731 58.8546 648.819C57.4146 648.996 45.9846 648.907 38.8746 648.819C38.6046 648.819 38.3346 648.907 38.0646 649.172C37.8846 649.349 37.7046 649.613 37.7046 649.966C37.7046 650.143 37.7046 654.291 37.7946 655.173L38.1546 667.175C38.1546 667.44 38.3346 667.705 38.5146 667.969C38.6946 668.146 38.9646 668.234 39.2346 668.234H39.3246C45.8946 667.616 52.5546 667.44 59.1246 667.705C59.3946 667.705 59.7546 667.616 59.9346 667.44C60.1146 667.263 60.2946 666.91 60.2946 666.646C60.2046 661.262 60.2046 654.997 60.2946 649.79Z" fill="url(#paint0_linear_4685_6426)"/>
<path d="M56.6494 181.842C55.9294 180.872 35.8594 187.402 33.6094 188.461C38.1094 192.609 52.3293 203.728 52.5093 203.464C53.1393 202.846 57.0994 182.46 56.6494 181.842Z" fill="url(#paint1_linear_4685_6426)"/>
<path d="M1362.03 351.842C1361.31 350.872 1341.24 357.402 1338.99 358.461C1343.49 362.609 1357.71 373.728 1357.89 373.464C1358.52 372.846 1362.48 352.46 1362.03 351.842Z" fill="url(#paint2_linear_4685_6426)"/>
<path d="M143.792 338.351C144.962 336.144 156.662 318.936 157.832 319.288C158.552 319.553 168.182 337.997 168.182 338.792C168.092 339.057 149.912 338.88 143.792 338.351ZM526.562 628.163C526.472 628.075 520.532 620.927 517.832 617.132C517.652 616.867 517.382 616.25 517.202 615.808C517.022 615.455 516.842 615.191 516.572 615.103C516.302 615.014 516.032 615.102 515.852 615.367L506.402 628.34C506.222 628.516 506.222 628.781 506.222 629.134C506.222 629.399 506.402 629.752 506.582 629.928C506.672 630.017 508.202 631.87 509.102 632.664C511.892 635.4 517.022 641.93 517.112 642.019C517.292 642.284 517.562 642.372 517.832 642.372C518.102 642.372 518.282 642.195 518.372 641.931C518.372 641.931 519.452 639.459 520.172 638.312C521.162 636.635 522.242 635.047 523.322 633.458C524.132 632.223 524.492 631.958 524.852 631.693C525.302 631.34 525.752 631.076 526.742 629.576C527.012 629.311 526.922 628.605 526.562 628.163ZM644.552 158.762C645.092 158.938 645.722 158.585 645.812 158.056C645.812 157.968 645.812 157.879 645.812 157.703C645.992 156.467 648.332 146.583 649.862 140.494C649.952 140.229 649.862 139.965 649.682 139.788C649.502 139.523 649.232 139.435 648.962 139.347C648.782 139.347 644.732 138.376 643.832 138.2L631.772 135.817C631.502 135.729 631.142 135.817 630.962 135.993C630.782 136.17 630.602 136.346 630.512 136.523V136.611C629.792 142.347 628.532 148.172 627.002 153.732C626.912 153.996 627.002 154.261 627.182 154.526C627.362 154.791 627.632 154.879 627.902 154.967C633.122 156.114 639.332 157.526 644.552 158.762Z" fill="url(#paint3_linear_4685_6426)"/>
<path d="M558.252 427.158C556.902 427.158 555.732 426.452 555.102 425.128C554.382 423.451 555.102 421.422 556.812 420.716C560.142 419.304 562.932 416.568 564.372 413.214C565.812 409.861 565.902 406.066 564.552 402.713C564.282 401.918 563.832 401.124 563.472 400.242C562.752 398.741 561.852 396.976 561.402 395.035C560.592 391.417 561.222 387.445 563.202 383.739C564.732 381.003 566.892 378.356 570.042 375.708C571.482 374.473 573.642 374.649 574.812 376.061C576.072 377.473 575.892 379.591 574.452 380.738C571.932 382.945 570.222 384.886 569.142 386.916C567.882 389.21 567.432 391.593 567.972 393.623C568.242 394.858 568.872 396.094 569.502 397.418C569.952 398.388 570.402 399.359 570.852 400.33C572.742 405.272 572.652 410.92 570.582 415.862C568.512 420.716 564.462 424.775 559.512 426.893C559.152 427.07 558.702 427.158 558.252 427.158ZM594.972 381.886C596.322 381.709 597.672 382.327 598.392 383.562C599.382 385.151 598.752 387.269 597.132 388.24C593.802 390.093 591.372 393.182 590.292 396.623C589.212 400.153 589.572 404.036 591.282 407.302C591.642 408.096 592.182 408.802 592.722 409.684C593.622 411.185 594.702 412.773 595.422 414.715C596.682 418.245 596.502 422.392 594.882 426.364C593.622 429.364 591.732 432.188 588.762 435.277C587.412 436.689 585.252 436.777 583.812 435.453C582.372 434.218 582.282 432.012 583.632 430.688C585.972 428.217 587.502 426.011 588.402 423.893C589.392 421.422 589.572 418.951 588.852 416.921C588.402 415.774 587.682 414.538 586.872 413.303C586.332 412.42 585.702 411.449 585.162 410.479C582.642 405.713 582.102 399.977 583.632 394.77C585.252 389.563 588.852 385.063 593.712 382.415C594.072 382.062 594.522 381.886 594.972 381.886ZM163.782 531.469C168.912 537.47 171.882 545.325 172.242 551.237C172.692 557.68 170.082 565.71 163.062 569.24C160.362 570.564 157.032 571.182 152.982 571.182C145.872 571.094 141.372 568.623 139.122 563.769C137.232 559.621 137.052 553.708 140.742 549.737C143.622 546.648 147.762 546.119 150.822 548.325C151.902 549.119 152.172 550.708 151.362 551.767C150.552 552.826 148.932 553.091 147.852 552.296C146.232 551.149 144.612 552.826 144.432 553.002C142.272 555.297 142.542 559.18 143.712 561.739C145.062 564.74 147.942 566.152 153.072 566.24C156.312 566.24 158.832 565.799 160.812 564.828C165.042 562.71 167.742 557.238 167.292 551.59C166.842 545.148 162.522 535.529 155.592 530.499C151.812 527.763 147.942 526.88 143.982 527.763C141.192 528.381 138.402 529.881 135.252 532.175C129.312 536.676 124.722 542.589 122.472 548.943C120.042 555.738 120.582 562.886 124.182 570.035C124.812 571.27 124.272 572.77 123.012 573.3C121.752 573.918 120.222 573.388 119.682 572.153C115.542 563.857 114.822 555.209 117.702 547.266C120.312 540.03 125.442 533.234 132.192 528.204C135.882 525.468 139.392 523.703 142.812 522.909C148.212 521.674 153.612 522.909 158.562 526.439C160.452 527.939 162.252 529.616 163.782 531.469Z" fill="url(#paint4_linear_4685_6426)"/>
<path d="M922.528 122.082C926.057 122.082 928.918 119.277 928.918 115.817C928.918 112.356 926.057 109.551 922.528 109.551C918.999 109.551 916.138 112.356 916.138 115.817C916.138 119.277 918.999 122.082 922.528 122.082Z" fill="url(#paint5_linear_4685_6426)"/>
<path d="M932.068 102.844C935.597 102.844 938.458 100.039 938.458 96.5783C938.458 93.1178 935.597 90.3125 932.068 90.3125C928.539 90.3125 925.678 93.1178 925.678 96.5783C925.678 100.039 928.539 102.844 932.068 102.844Z" fill="url(#paint6_linear_4685_6426)"/>
<path d="M943.768 117.67C947.297 117.67 950.158 114.865 950.158 111.404C950.158 107.944 947.297 105.139 943.768 105.139C940.239 105.139 937.378 107.944 937.378 111.404C937.378 114.865 940.239 117.67 943.768 117.67Z" fill="url(#paint7_linear_4685_6426)"/>
<path d="M1398.62 162.279C1394.3 157.514 1389.89 152.748 1385.3 147.983C1390.34 143.041 1395.29 137.834 1399.34 131.921C1400.42 130.421 1399.97 128.303 1398.44 127.332C1396.91 126.273 1394.75 126.714 1393.76 128.215C1389.98 133.686 1385.57 138.452 1380.71 143.129C1376.39 138.716 1371.98 134.304 1367.48 129.98C1366.13 128.656 1363.97 128.656 1362.71 129.98C1361.36 131.303 1361.36 133.421 1362.71 134.657C1367.12 138.893 1371.44 143.305 1375.76 147.718C1374.77 148.689 1373.69 149.659 1372.61 150.542C1368.92 153.895 1365.05 157.425 1361.45 161.132C1360.19 162.456 1360.19 164.485 1361.45 165.809C1362.8 167.045 1364.96 167.045 1366.22 165.721C1369.73 162.191 1373.51 158.749 1377.11 155.396C1378.19 154.425 1379.18 153.454 1380.26 152.483C1384.67 157.161 1389.08 161.838 1393.4 166.515C1393.49 166.603 1393.49 166.603 1393.58 166.692C1394.84 167.927 1396.91 168.015 1398.26 166.868C1399.79 165.809 1399.88 163.691 1398.62 162.279ZM192.857 219.39L192.497 217.095C191.147 207.299 190.517 196.621 190.427 184.443C190.427 179.589 190.427 174.294 190.607 168.116C190.607 167.499 190.607 166.793 190.607 166.087C190.607 161.674 190.607 156.203 194.117 154.173C196.097 153.026 198.707 153.29 201.767 154.967C206.897 157.703 213.647 162.645 217.517 168.116C222.467 175 224.087 183.031 222.017 190.797C219.137 201.651 208.517 218.154 195.017 219.125L192.857 219.39ZM196.907 158.144C196.727 158.144 196.637 158.144 196.547 158.232C196.457 158.321 195.917 158.674 195.557 160.615C195.287 162.292 195.287 164.322 195.287 166.175C195.287 166.881 195.287 167.675 195.287 168.293C195.107 174.382 195.107 179.589 195.107 184.443C195.197 195.474 195.737 205.181 196.907 214.183C206.807 211.8 215.267 198.21 217.607 189.649C219.317 183.295 217.967 176.588 213.827 170.852C210.317 165.998 204.017 161.498 199.517 159.115C198.257 158.409 197.357 158.144 196.907 158.144ZM362.687 53.656C362.597 53.656 362.507 53.656 362.327 53.5678C360.167 52.95 358.727 52.7735 356.297 52.95C355.667 52.95 355.127 52.5088 355.037 51.891C355.037 51.2733 355.487 50.7438 356.117 50.6555C358.907 50.479 360.527 50.6555 362.957 51.3615C363.587 51.538 363.947 52.1558 363.767 52.7735C363.587 53.303 363.137 53.656 362.687 53.656ZM353.507 62.2163C353.057 62.2163 352.607 61.9515 352.427 61.5103C351.707 59.657 351.347 57.7155 351.257 55.6858C351.257 55.068 351.707 54.5385 352.337 54.5385C352.967 54.5385 353.507 54.9798 353.507 55.5975C353.597 57.3625 353.957 59.0393 354.497 60.716C354.677 61.3338 354.407 61.9515 353.777 62.128C353.777 62.2163 353.597 62.2163 353.507 62.2163ZM342.707 56.833C342.347 56.833 341.987 56.6565 341.807 56.3918C341.447 55.8623 341.537 55.1563 341.987 54.8033C343.607 53.5678 345.317 52.5088 347.207 51.6263C347.747 51.3615 348.467 51.6263 348.737 52.1558C349.007 52.6853 348.737 53.3913 348.197 53.656C346.487 54.4503 344.867 55.421 343.427 56.5683C343.247 56.7448 342.977 56.833 342.707 56.833ZM348.467 48.8023C348.017 48.8023 347.657 48.5375 347.387 48.1845C346.937 47.302 346.307 46.5078 345.227 45.184C344.957 44.831 344.597 44.3898 344.237 43.9485C343.877 43.419 343.967 42.713 344.417 42.36C344.957 42.007 345.677 42.0953 346.037 42.5365C346.397 42.9778 346.757 43.419 347.027 43.772C348.197 45.184 348.917 46.0665 349.457 47.2138C349.727 47.7433 349.457 48.4493 348.917 48.714C348.827 48.8023 348.647 48.8023 348.467 48.8023ZM354.047 48.5375C353.777 48.5375 353.597 48.4493 353.327 48.361C352.787 48.008 352.697 47.302 353.057 46.7725C354.137 45.2723 355.127 43.772 356.027 42.1835C356.297 41.654 357.017 41.3893 357.557 41.7423C358.097 42.007 358.367 42.713 358.007 43.2425C357.107 44.9193 356.027 46.596 354.857 48.1845C354.677 48.361 354.407 48.5375 354.047 48.5375ZM477.645 237.821C477.555 237.821 477.465 237.821 477.285 237.733C475.125 237.115 473.685 236.939 471.255 237.115C470.625 237.115 470.085 236.674 469.995 236.056C469.995 235.438 470.445 234.909 471.075 234.821C473.865 234.644 475.484 234.821 477.914 235.527C478.544 235.703 478.904 236.321 478.724 236.939C478.544 237.468 478.095 237.821 477.645 237.821ZM468.465 246.381C468.015 246.381 467.565 246.117 467.385 245.675C466.665 243.822 466.305 241.881 466.215 239.851C466.215 239.233 466.665 238.704 467.295 238.704C467.925 238.704 468.465 239.145 468.465 239.763C468.555 241.528 468.915 243.204 469.455 244.881C469.635 245.499 469.365 246.117 468.735 246.293C468.735 246.381 468.555 246.381 468.465 246.381ZM457.664 240.998C457.304 240.998 456.944 240.822 456.764 240.557C456.404 240.027 456.495 239.321 456.945 238.968C458.565 237.733 460.275 236.674 462.165 235.791C462.705 235.527 463.425 235.791 463.695 236.321C463.965 236.85 463.695 237.556 463.155 237.821C461.445 238.615 459.825 239.586 458.385 240.733C458.205 240.91 457.934 240.998 457.664 240.998ZM463.424 232.967C462.974 232.967 462.615 232.703 462.345 232.35C461.895 231.467 461.265 230.673 460.185 229.349C459.915 228.996 459.555 228.555 459.195 228.114C458.835 227.584 458.924 226.878 459.374 226.525C459.914 226.172 460.635 226.26 460.995 226.702C461.355 227.143 461.715 227.584 461.985 227.937C463.155 229.349 463.875 230.232 464.415 231.379C464.685 231.908 464.415 232.614 463.875 232.879C463.785 232.967 463.604 232.967 463.424 232.967ZM469.005 232.703C468.735 232.703 468.555 232.614 468.285 232.526C467.745 232.173 467.654 231.467 468.014 230.938C469.094 229.437 470.085 227.937 470.985 226.349C471.255 225.819 471.975 225.554 472.515 225.907C473.055 226.172 473.324 226.878 472.964 227.408C472.064 229.084 470.984 230.761 469.814 232.35C469.634 232.526 469.365 232.703 469.005 232.703ZM1339.51 646.026C1338.25 646.026 1336.9 645.849 1335.46 645.408C1327.9 643.025 1320.52 634.2 1318.63 627.758C1318.27 626.522 1318 625.199 1317.82 623.875C1310.53 626.787 1303.87 633.229 1303.96 642.407C1303.96 643.731 1302.88 644.79 1301.53 644.878C1300.18 644.878 1299.1 643.819 1299.1 642.496C1299.01 636.583 1301.26 631.111 1305.4 626.611C1308.64 623.081 1312.96 620.345 1317.73 618.844C1318.18 613.108 1320.52 607.46 1324.39 603.489C1330.69 596.959 1340.77 595.635 1348.96 594.576L1349.59 594.488C1350.94 594.311 1352.2 595.282 1352.38 596.517C1352.56 597.841 1351.57 599.077 1350.31 599.253L1349.68 599.341C1341.94 600.4 1333.12 601.548 1328.08 606.754C1325.38 609.578 1323.58 613.55 1322.95 617.697C1330.06 616.815 1338.88 618.845 1344.82 622.728C1348.69 625.287 1351.21 629.611 1351.3 633.935C1351.48 637.73 1349.77 641.26 1346.62 643.731C1344.46 645.143 1342.12 646.026 1339.51 646.026ZM1322.68 622.463C1322.77 623.787 1323.04 625.11 1323.4 626.346C1324.93 631.464 1331.23 638.877 1336.99 640.731C1339.51 641.525 1341.58 641.172 1343.47 639.76C1345.9 637.907 1346.35 635.524 1346.26 633.935C1346.17 631.111 1344.46 628.287 1341.94 626.611C1336.81 623.169 1328.71 621.492 1322.68 622.463Z" fill="url(#paint8_linear_4685_6426)"/>
</g>
<defs>
<linearGradient id="paint0_linear_4685_6426" x1="203.528" y1="240.514" x2="510.023" y2="977.031" gradientUnits="userSpaceOnUse">
<stop stop-color="#CE4F8C"/>
<stop offset="1" stop-color="#9D2076"/>
</linearGradient>
<linearGradient id="paint1_linear_4685_6426" x1="203.528" y1="240.514" x2="510.023" y2="977.031" gradientUnits="userSpaceOnUse">
<stop stop-color="#CE4F8C"/>
<stop offset="1" stop-color="#9D2076"/>
</linearGradient>
<linearGradient id="paint2_linear_4685_6426" x1="203.528" y1="240.514" x2="510.023" y2="977.031" gradientUnits="userSpaceOnUse">
<stop stop-color="#CE4F8C"/>
<stop offset="1" stop-color="#9D2076"/>
</linearGradient>
<linearGradient id="paint3_linear_4685_6426" x1="208.526" y1="218.25" x2="635.561" y2="612.512" gradientUnits="userSpaceOnUse">
<stop stop-color="#CE4F8C"/>
<stop offset="1" stop-color="#9D2076"/>
</linearGradient>
<linearGradient id="paint4_linear_4685_6426" x1="177.729" y1="407.225" x2="302.579" y2="687.663" gradientUnits="userSpaceOnUse">
<stop stop-color="#CE4F8C"/>
<stop offset="1" stop-color="#9D2076"/>
</linearGradient>
<linearGradient id="paint5_linear_4685_6426" x1="917.772" y1="111.591" x2="928.351" y2="121.561" gradientUnits="userSpaceOnUse">
<stop stop-color="#CE4F8C"/>
<stop offset="1" stop-color="#9D2076"/>
</linearGradient>
<linearGradient id="paint6_linear_4685_6426" x1="927.312" y1="92.3525" x2="937.891" y2="102.323" gradientUnits="userSpaceOnUse">
<stop stop-color="#CE4F8C"/>
<stop offset="1" stop-color="#9D2076"/>
</linearGradient>
<linearGradient id="paint7_linear_4685_6426" x1="939.013" y1="107.179" x2="949.591" y2="117.149" gradientUnits="userSpaceOnUse">
<stop stop-color="#CE4F8C"/>
<stop offset="1" stop-color="#9D2076"/>
</linearGradient>
<linearGradient id="paint8_linear_4685_6426" x1="345.131" y1="139.979" x2="772.871" y2="930.966" gradientUnits="userSpaceOnUse">
<stop stop-color="#CE4F8C"/>
<stop offset="1" stop-color="#9D2076"/>
</linearGradient>
</defs>
</svg>
